<svg width="294.1499084472656px" height="68.80000152587891px" xmlns="http://www.w3.org/2000/svg" viewBox="122.9250457763672 40.599999237060544 294.1499084472656 68.80000152587891" style="background: rgba(0, 0, 0, 0);" preserveAspectRatio="xMidYMid">
<defs>
<filter id="editing-hole" x="-100%" y="-100%" width="300%" height="300%">
<feFlood flood-color="#000000" result="black"></feFlood>
<feMorphology operator="dilate" radius="2" in="SourceGraphic" result="erode"></feMorphology>
<feGaussianBlur in="erode" stdDeviation="4" result="blur"></feGaussianBlur>
<feOffset in="blur" dx="2" dy="2" result="offset"></feOffset>
<feComposite operator="atop" in="offset" in2="black" result="merge"></feComposite>
<feComposite operator="in" in="merge" in2="SourceGraphic" result="inner-shadow"></feComposite>
</filter>
</defs>

<!-- Computer Icon -->
<g transform="translate(135, 60)">
<!-- Monitor -->
<rect x="0" y="0" width="40" height="28" rx="2" ry="2" fill="#5044e5" stroke="#5044e5" stroke-width="1"/>
<rect x="2" y="2" width="36" height="20" fill="white"/>
<!-- Stand -->
<rect x="16" y="28" width="8" height="8" fill="#5044e5"/>
<!-- Base -->
<rect x="8" y="36" width="24" height="4" rx="2" ry="2" fill="#5044e5"/>
<!-- Screen content (optional lines to suggest a screen) -->
<rect x="4" y="4" width="20" height="2" fill="#e0e0e0"/>
<rect x="4" y="8" width="28" height="2" fill="#e0e0e0"/>
<rect x="4" y="12" width="24" height="2" fill="#e0e0e0"/>
</g>

<g filter="url(#editing-hole)">
<g transform="translate(184.31998901069164, 87.34999465942383)">
<path d="M16.58-16L16.58-15.20L15.24-15.20L10.78 0L6 0L1.54-15.20L0.20-15.20L0.20-16L8.48-16L8.48-15.20L6.32-15.20L10.30-1.64L14.28-15.20L12.12-15.20L12.12-16L16.58-16ZM23.88-16.64L20.82-13.60L17.78-16.66L20.84-19.70L23.88-16.64ZM23.38-0.80L24.98-0.80L24.98 0L20.64 0L18.78-1.86L18.78-11.20L17.18-11.20L17.18-12L21.52-12L23.38-10.14L23.38-0.80ZM25.58-17.60L29.92-17.60L31.78-15.74L31.78 0L29.04 0L27.18-1.86L27.18-16.80L25.58-16.80L25.58-17.60ZM39.62-0.80L40.62-0.80L40.62 0L34.98 0L32.28-6.02L32.28-6.80L36.80-12L39.10-12L39.10-11.20L37.26-11.20L33.44-6.80L36.94-6.80L39.62-0.80ZM51.06-12L52.52-10.54L51.90-9.92L50.62-11.20L48.92-11.20L47.52-9.80L47.52-0.80L49.12-0.80L49.12 0L44.78 0L42.92-1.86L42.92-11.20L41.32-11.20L41.32-12L45.66-12L47.08-10.60L48.48-12L51.06-12ZM53.72-1.66L55.38 0L59.76 0L60.98-1.22L62.18 0L66.72 0L66.72-0.80L65.12-0.80L65.12-10.34L63.46-12L55.88-12L54.22-10.34L54.22-8L58.42-8L58.42-11.20L60.52-11.20L60.52-6.40L55.38-6.40L53.72-4.74L53.72-1.66ZM58.42-0.80L58.42-5.60L60.52-5.60L60.52-2L59.32-0.80L58.42-0.80ZM88.62-0.80L90.22-0.80L90.22 0L85.78 0L84.12-1.66L84.12-11.20L82.72-11.20L81.32-9.80L81.32-0.80L82.52-0.80L82.52 0L76.72 0L76.72-11.20L75.32-11.20L73.92-9.80L73.92-0.80L75.12-0.80L75.12 0L67.72 0L67.72-0.80L69.32-0.80L69.32-11.20L67.72-11.20L67.72-12L72.06-12L73.48-10.60L74.88-12L79.46-12L80.88-10.60L82.28-12L86.76-12L88.62-10.14L88.62-0.80ZM92.02-1.66L93.68 0L98.06 0L99.28-1.22L100.48 0L105.02 0L105.02-0.80L103.42-0.80L103.42-10.34L101.76-12L94.18-12L92.52-10.34L92.52-8L96.72-8L96.72-11.20L98.82-11.20L98.82-6.40L93.68-6.40L92.02-4.74L92.02-1.66ZM96.72-0.80L96.72-5.60L98.82-5.60L98.82-2L97.62-0.80L96.72-0.80ZM119.42-0.80L121.02-0.80L121.02 0L116.48 0L114.82-1.66L114.82-11.20L113.42-11.20L112.02-9.80L112.02-0.80L113.02-0.80L113.02 0L105.82 0L105.82-0.80L107.42-0.80L107.42-11.20L105.82-11.20L105.82-12L110.16-12L111.58-10.60L112.98-12L117.56-12L119.42-10.14L119.42-0.80ZM121.82 0L133.62 0L135.48-1.86L135.48-6.54L133.82-8.20L135.48-9.86L135.48-14.14L133.62-16L121.82-16L121.82-15.20L123.42-15.20L123.42-0.80L121.82-0.80L121.82 0ZM128.02-8.60L128.02-15.20L130.88-15.20L130.88-8.60L128.02-8.60ZM128.02-0.80L128.02-7.80L130.88-7.80L130.88-0.80L128.02-0.80ZM142.48-0.80L143.88-0.80L143.88 0L139.74 0L137.88-1.86L137.88-16.80L136.48-16.80L136.48-17.60L140.62-17.60L142.48-15.74L142.48-0.80ZM154.70-12L156.76-9.94L156.76-2.06L154.70 0L147.34 0L145.28-2.06L145.28-9.94L147.34-12L154.70-12ZM151.96-11.20L150.08-11.20L150.08-0.80L151.96-0.80L151.96-11.20ZM168.42-12L171.16-12L171.16 3.14L169.30 5L160.42 5L158.76 3.34L158.76 1L163.26 1L163.26 4.20L166.56 4.20L166.56-2.16L165.60-1.20L160.72-1.20L158.86-3.06L158.86-10.14L160.72-12L165.60-12L167.02-10.60L168.42-12ZM165.16-2L166.56-3.40L166.56-9.80L165.16-11.20L163.36-11.20L163.36-2L165.16-2Z" fill="#000000"></path>
</g>
</g>
<style>text {
  font-size: 64px;
  font-family: Arial Black;
  dominant-baseline: central;
  text-anchor: middle;
}</style>
</svg>